{"title":"Federico Fellini's La Dolce Vita (1960) - RESTORED 1080p x265 HE","uid":15583294,"size":1489994160,"categoryP":"video","categoryS":"hd___movies","magnet":"?xt=urn:btih:3e6777262d56a247abedd8c359ed27c02165ab2a&amp;dn=Federico+Fellini%27s+La+Dolce+Vita+%281960%29+-+RESTORED+1080p+x265+HE&amp;tr=udp%3A%2F%2Ftracker.leechers-paradise.org%3A6969&amp;tr=udp%3A%2F%2Fzer0day.ch%3A1337&amp;tr=udp%3A%2F%2Fopen.demonii.com%3A1337&amp;tr=udp%3A%2F%2Ftracker.coppersurfer.tk%3A6969&amp;tr=udp%3A%2F%2Fexodus.desync.com%3A6969","seeders":32,"leechers":6,"uploader":"BRSHNKV","files":2,"time":1471436288,"description":"A series of stories following a week in the life of a philandering paparazzo journalist living in Rome. \r\nVideo\r\nID                                       : 1\r\nFormat                                   : HEVC\r\nFormat/Info                              : High Efficiency Video Coding\r\nFormat profile                           : Main   @Main\r\nCodec ID                                 : hev1\r\nCodec ID/Info                            : High Efficiency Video Coding\r\nDuration                                 : 2h 55mn\r\nBit rate                                 : 1 001 Kbps\r\nWidth                                    : 1 918 pixels\r\nHeight                                   : 824 pixels\r\nDisplay aspect ratio                     : 2.35:1\r\nFrame rate mode                          : Variable\r\nFrame rate                               : 23.976 fps\r\nMinimum frame rate                       : 23.974 fps\r\nMaximum frame rate                       : 23.981 fps\r\nColor space                              : YUV\r\nChroma subsampling                       : 4:2:0\r\nBit depth                                : 10 bits\r\nBits/(Pixel*Frame)                       : 0.026\r\nStream size                              : 1.23 GiB (89%)\r\nWriting library                          : x265 1.9:[Mac OS X][clang 7.0.2][64 bit] 10bit\r\nEncoded date                             : UTC 2016-08-10 09:11:27\r\nTagged date                              : UTC 2016-08-10 09:11:27\r\nColor range                              : Limited\r\nColor primaries                          : BT.709\r\nTransfer characteristics                 : BT.709\r\nMatrix coefficients                      : BT.709\r\n\r\nAudio\r\nID                                       : 2\r\nFormat                                   : AAC\r\nFormat/Info                              : Advanced Audio Codec\r\nFormat profile                           : LC\r\nCodec ID                                 : 40\r\nDuration                                 : 2h 55mn\r\nBit rate mode                            : Variable\r\nBit rate                                 : 122 Kbps\r\nChannel(s)                               : 2 channels\r\nChannel positions                        : Front: L R\r\nSampling rate                            : 48.0 KHz\r\nCompression mode                         : Lossy\r\nStream size                              : 154 MiB (11%)\r\nTitle                                    : Stereo / Stereo\r\nLanguage                                 : Italian\r\nEncoded date                             : UTC 2016-08-10 09:11:27\r\nTagged date                              : UTC 2016-08-10 09:11:27\r\n\r\nText\r\nID                                       : 3\r\nFormat                                   : Timed Text\r\nMuxing mode                              : sbtl\r\nCodec ID                                 : tx3g\r\nDuration                                 : 2h 53mn\r\nBit rate mode                            : Variable\r\nBit rate                                 : 43 bps\r\nStream size                              : 54.8 KiB (0%)\r\nLanguage                                 : English\r\nEncoded date                             : UTC 2016-08-10 09:11:27\r\nTagged date                              : UTC 2016-08-10 09:11:27","torrent":{"xt":"urn:btih:3e6777262d56a247abedd8c359ed27c02165ab2a","amp;dn":"Federico+Fellini%27s+La+Dolce+Vita+%281960%29+-+RESTORED+1080p+x265+HE","amp;tr":["udp%3A%2F%2Ftracker.leechers-paradise.org%3A6969","udp%3A%2F%2Fzer0day.ch%3A1337","udp%3A%2F%2Fopen.demonii.com%3A1337","udp%3A%2F%2Ftracker.coppersurfer.tk%3A6969","udp%3A%2F%2Fexodus.desync.com%3A6969"],"infoHash":"3e6777262d56a247abedd8c359ed27c02165ab2a","infoHashBuffer":{"type":"Buffer","data":[62,103,119,38,45,86,162,71,171,237,216,195,89,237,39,192,33,101,171,42]},"announce":[],"urlList":[]}}